<svg xmlns="http://www.w3.org/2000/svg" xmlns:xlink="http://www.w3.org/1999/xlink" width="470" zoomAndPan="magnify" viewBox="0 0 352.5 187.499995" height="250" preserveAspectRatio="xMidYMid meet" version="1.0"><defs><g/><clipPath id="id1"><path d="M 0.21875 0 L 351.78125 0 L 351.78125 187 L 0.21875 187 Z M 0.21875 0 " clip-rule="nonzero"/></clipPath></defs><g clip-path="url(#id1)"><path fill="#ffffff" d="M 0.21875 0 L 352.28125 0 L 352.28125 194.007812 L 0.21875 194.007812 Z M 0.21875 0 " fill-opacity="1" fill-rule="nonzero"/><path fill="#a6a6a6" d="M 0.21875 0 L 352.28125 0 L 352.28125 187.265625 L 0.21875 187.265625 Z M 0.21875 0 " fill-opacity="1" fill-rule="nonzero"/><path fill="#ffffff" d="M 0.21875 0 L 352.28125 0 L 352.28125 187.265625 L 0.21875 187.265625 Z M 0.21875 0 " fill-opacity="1" fill-rule="nonzero"/><path fill="#a6a6a6" d="M 0.21875 0 L 352.28125 0 L 352.28125 187.265625 L 0.21875 187.265625 Z M 0.21875 0 " fill-opacity="1" fill-rule="nonzero"/></g><g fill="#ffffff" fill-opacity="1"><g transform="translate(112.871737, 102.471138)"><g><path d="M 7.75 -12.140625 C 8.789062 -12.140625 9.707031 -11.878906 10.5 -11.359375 C 11.300781 -10.835938 11.921875 -10.109375 12.359375 -9.171875 C 12.804688 -8.242188 13.03125 -7.164062 13.03125 -5.9375 C 13.03125 -4.707031 12.804688 -3.632812 12.359375 -2.71875 C 11.921875 -1.800781 11.304688 -1.085938 10.515625 -0.578125 C 9.722656 -0.078125 8.800781 0.171875 7.75 0.171875 C 6.820312 0.171875 6.007812 -0.03125 5.3125 -0.4375 C 4.625 -0.851562 4.101562 -1.4375 3.75 -2.1875 L 3.75 5.09375 L 1.84375 5.09375 L 1.84375 -8.53125 C 1.84375 -9.757812 1.78125 -10.867188 1.65625 -11.859375 L 3.46875 -11.859375 L 3.65625 -9.5625 C 3.976562 -10.382812 4.5 -11.019531 5.21875 -11.46875 C 5.9375 -11.914062 6.78125 -12.140625 7.75 -12.140625 Z M 7.40625 -1.40625 C 8.5625 -1.40625 9.457031 -1.796875 10.09375 -2.578125 C 10.726562 -3.367188 11.046875 -4.488281 11.046875 -5.9375 C 11.046875 -7.382812 10.722656 -8.507812 10.078125 -9.3125 C 9.441406 -10.125 8.550781 -10.53125 7.40625 -10.53125 C 6.21875 -10.53125 5.3125 -10.132812 4.6875 -9.34375 C 4.0625 -8.5625 3.75 -7.441406 3.75 -5.984375 C 3.75 -4.523438 4.0625 -3.394531 4.6875 -2.59375 C 5.3125 -1.800781 6.21875 -1.40625 7.40625 -1.40625 Z M 7.40625 -1.40625 "/></g></g></g><g fill="#ffffff" fill-opacity="1"><g transform="translate(127.012338, 102.471138)"><g><path d="M 1.84375 0 L 1.84375 -17.34375 L 3.75 -17.34375 L 3.75 0 Z M 1.84375 0 "/></g></g></g><g fill="#ffffff" fill-opacity="1"><g transform="translate(132.62145, 102.471138)"><g><path d="M 12.28125 -11.859375 L 12.28125 0 L 10.390625 0 L 10.390625 -2.140625 C 10.046875 -1.398438 9.523438 -0.828125 8.828125 -0.421875 C 8.128906 -0.0234375 7.316406 0.171875 6.390625 0.171875 C 5.335938 0.171875 4.410156 -0.078125 3.609375 -0.578125 C 2.816406 -1.085938 2.203125 -1.800781 1.765625 -2.71875 C 1.335938 -3.632812 1.125 -4.707031 1.125 -5.9375 C 1.125 -7.164062 1.34375 -8.242188 1.78125 -9.171875 C 2.226562 -10.109375 2.847656 -10.835938 3.640625 -11.359375 C 4.429688 -11.878906 5.347656 -12.140625 6.390625 -12.140625 C 7.316406 -12.140625 8.125 -11.929688 8.8125 -11.515625 C 9.5 -11.109375 10.023438 -10.535156 10.390625 -9.796875 L 10.390625 -11.859375 Z M 6.765625 -1.40625 C 7.921875 -1.40625 8.8125 -1.800781 9.4375 -2.59375 C 10.070312 -3.394531 10.390625 -4.523438 10.390625 -5.984375 C 10.390625 -7.441406 10.070312 -8.5625 9.4375 -9.34375 C 8.8125 -10.132812 7.921875 -10.53125 6.765625 -10.53125 C 5.597656 -10.53125 4.6875 -10.125 4.03125 -9.3125 C 3.382812 -8.507812 3.0625 -7.382812 3.0625 -5.9375 C 3.0625 -4.488281 3.382812 -3.367188 4.03125 -2.578125 C 4.675781 -1.796875 5.585938 -1.40625 6.765625 -1.40625 Z M 6.765625 -1.40625 "/></g></g></g><g fill="#ffffff" fill-opacity="1"><g transform="translate(146.762051, 102.471138)"><g><path d="M 6.8125 0.171875 C 5.664062 0.171875 4.660156 -0.078125 3.796875 -0.578125 C 2.941406 -1.085938 2.28125 -1.800781 1.8125 -2.71875 C 1.351562 -3.632812 1.125 -4.707031 1.125 -5.9375 C 1.125 -7.164062 1.359375 -8.242188 1.828125 -9.171875 C 2.304688 -10.109375 2.976562 -10.835938 3.84375 -11.359375 C 4.71875 -11.878906 5.738281 -12.140625 6.90625 -12.140625 C 7.707031 -12.140625 8.476562 -12 9.21875 -11.71875 C 9.96875 -11.445312 10.585938 -11.066406 11.078125 -10.578125 L 10.4375 -9.171875 C 9.84375 -9.640625 9.265625 -9.984375 8.703125 -10.203125 C 8.148438 -10.421875 7.582031 -10.53125 7 -10.53125 C 5.789062 -10.53125 4.835938 -10.125 4.140625 -9.3125 C 3.453125 -8.507812 3.109375 -7.382812 3.109375 -5.9375 C 3.109375 -4.507812 3.445312 -3.394531 4.125 -2.59375 C 4.8125 -1.800781 5.769531 -1.40625 7 -1.40625 C 7.582031 -1.40625 8.148438 -1.515625 8.703125 -1.734375 C 9.265625 -1.960938 9.84375 -2.3125 10.4375 -2.78125 L 11.078125 -1.359375 C 10.578125 -0.890625 9.941406 -0.515625 9.171875 -0.234375 C 8.410156 0.0351562 7.625 0.171875 6.8125 0.171875 Z M 6.8125 0.171875 "/></g></g></g><g fill="#ffffff" fill-opacity="1"><g transform="translate(158.42804, 102.471138)"><g><path d="M 11.75 -5.984375 L 3.0625 -5.984375 C 3.082031 -4.472656 3.429688 -3.332031 4.109375 -2.5625 C 4.796875 -1.789062 5.789062 -1.40625 7.09375 -1.40625 C 8.476562 -1.40625 9.75 -1.867188 10.90625 -2.796875 L 11.546875 -1.40625 C 11.023438 -0.925781 10.359375 -0.539062 9.546875 -0.25 C 8.742188 0.03125 7.914062 0.171875 7.0625 0.171875 C 5.207031 0.171875 3.753906 -0.375 2.703125 -1.46875 C 1.648438 -2.5625 1.125 -4.0625 1.125 -5.96875 C 1.125 -7.175781 1.359375 -8.242188 1.828125 -9.171875 C 2.304688 -10.109375 2.96875 -10.835938 3.8125 -11.359375 C 4.664062 -11.878906 5.632812 -12.140625 6.71875 -12.140625 C 8.289062 -12.140625 9.519531 -11.625 10.40625 -10.59375 C 11.300781 -9.5625 11.75 -8.144531 11.75 -6.34375 Z M 6.734375 -10.65625 C 5.742188 -10.65625 4.9375 -10.351562 4.3125 -9.75 C 3.695312 -9.15625 3.304688 -8.316406 3.140625 -7.234375 L 10.03125 -7.234375 C 9.9375 -8.347656 9.609375 -9.195312 9.046875 -9.78125 C 8.492188 -10.363281 7.722656 -10.65625 6.734375 -10.65625 Z M 6.734375 -10.65625 "/></g></g></g><g fill="#ffffff" fill-opacity="1"><g transform="translate(171.24886, 102.471138)"><g><path d="M 7.75 -12.140625 C 10.59375 -12.140625 12.015625 -10.578125 12.015625 -7.453125 L 12.015625 0 L 10.109375 0 L 10.109375 -7.34375 C 10.109375 -8.445312 9.882812 -9.253906 9.4375 -9.765625 C 9 -10.273438 8.3125 -10.53125 7.375 -10.53125 C 6.269531 -10.53125 5.390625 -10.191406 4.734375 -9.515625 C 4.078125 -8.835938 3.75 -7.925781 3.75 -6.78125 L 3.75 0 L 1.84375 0 L 1.84375 -17.34375 L 3.75 -17.34375 L 3.75 -9.921875 C 4.125 -10.640625 4.660156 -11.1875 5.359375 -11.5625 C 6.054688 -11.945312 6.851562 -12.140625 7.75 -12.140625 Z M 7.75 -12.140625 "/></g></g></g><g fill="#ffffff" fill-opacity="1"><g transform="translate(185.035938, 102.471138)"><g><path d="M 6.734375 0.171875 C 5.617188 0.171875 4.632812 -0.078125 3.78125 -0.578125 C 2.9375 -1.085938 2.28125 -1.804688 1.8125 -2.734375 C 1.351562 -3.660156 1.125 -4.742188 1.125 -5.984375 C 1.125 -7.222656 1.351562 -8.304688 1.8125 -9.234375 C 2.28125 -10.160156 2.9375 -10.875 3.78125 -11.375 C 4.632812 -11.882812 5.617188 -12.140625 6.734375 -12.140625 C 7.847656 -12.140625 8.828125 -11.882812 9.671875 -11.375 C 10.523438 -10.875 11.179688 -10.160156 11.640625 -9.234375 C 12.109375 -8.304688 12.34375 -7.222656 12.34375 -5.984375 C 12.34375 -4.742188 12.109375 -3.660156 11.640625 -2.734375 C 11.179688 -1.804688 10.523438 -1.085938 9.671875 -0.578125 C 8.828125 -0.078125 7.847656 0.171875 6.734375 0.171875 Z M 6.734375 -1.40625 C 7.910156 -1.40625 8.8125 -1.796875 9.4375 -2.578125 C 10.070312 -3.359375 10.390625 -4.492188 10.390625 -5.984375 C 10.390625 -7.429688 10.066406 -8.550781 9.421875 -9.34375 C 8.773438 -10.132812 7.878906 -10.53125 6.734375 -10.53125 C 5.578125 -10.53125 4.675781 -10.132812 4.03125 -9.34375 C 3.382812 -8.550781 3.0625 -7.429688 3.0625 -5.984375 C 3.0625 -4.492188 3.378906 -3.359375 4.015625 -2.578125 C 4.648438 -1.796875 5.554688 -1.40625 6.734375 -1.40625 Z M 6.734375 -1.40625 "/></g></g></g><g fill="#ffffff" fill-opacity="1"><g transform="translate(198.516649, 102.471138)"><g><path d="M 1.84375 0 L 1.84375 -17.34375 L 3.75 -17.34375 L 3.75 0 Z M 1.84375 0 "/></g></g></g><g fill="#ffffff" fill-opacity="1"><g transform="translate(204.125761, 102.471138)"><g><path d="M 12.28125 -17.34375 L 12.28125 0 L 10.390625 0 L 10.390625 -2.140625 C 10.046875 -1.398438 9.523438 -0.828125 8.828125 -0.421875 C 8.128906 -0.0234375 7.316406 0.171875 6.390625 0.171875 C 5.347656 0.171875 4.429688 -0.0859375 3.640625 -0.609375 C 2.847656 -1.128906 2.226562 -1.851562 1.78125 -2.78125 C 1.34375 -3.71875 1.125 -4.800781 1.125 -6.03125 C 1.125 -7.257812 1.335938 -8.332031 1.765625 -9.25 C 2.203125 -10.164062 2.820312 -10.875 3.625 -11.375 C 4.425781 -11.882812 5.347656 -12.140625 6.390625 -12.140625 C 7.316406 -12.140625 8.125 -11.9375 8.8125 -11.53125 C 9.5 -11.132812 10.019531 -10.570312 10.375 -9.84375 L 10.375 -17.34375 Z M 6.765625 -1.40625 C 7.921875 -1.40625 8.8125 -1.800781 9.4375 -2.59375 C 10.070312 -3.394531 10.390625 -4.523438 10.390625 -5.984375 C 10.390625 -7.429688 10.070312 -8.550781 9.4375 -9.34375 C 8.8125 -10.132812 7.921875 -10.53125 6.765625 -10.53125 C 5.597656 -10.53125 4.6875 -10.132812 4.03125 -9.34375 C 3.382812 -8.5625 3.0625 -7.457031 3.0625 -6.03125 C 3.0625 -4.570312 3.382812 -3.4375 4.03125 -2.625 C 4.6875 -1.8125 5.597656 -1.40625 6.765625 -1.40625 Z M 6.765625 -1.40625 "/></g></g></g><g fill="#ffffff" fill-opacity="1"><g transform="translate(218.266362, 102.471138)"><g><path d="M 11.75 -5.984375 L 3.0625 -5.984375 C 3.082031 -4.472656 3.429688 -3.332031 4.109375 -2.5625 C 4.796875 -1.789062 5.789062 -1.40625 7.09375 -1.40625 C 8.476562 -1.40625 9.75 -1.867188 10.90625 -2.796875 L 11.546875 -1.40625 C 11.023438 -0.925781 10.359375 -0.539062 9.546875 -0.25 C 8.742188 0.03125 7.914062 0.171875 7.0625 0.171875 C 5.207031 0.171875 3.753906 -0.375 2.703125 -1.46875 C 1.648438 -2.5625 1.125 -4.0625 1.125 -5.96875 C 1.125 -7.175781 1.359375 -8.242188 1.828125 -9.171875 C 2.304688 -10.109375 2.96875 -10.835938 3.8125 -11.359375 C 4.664062 -11.878906 5.632812 -12.140625 6.71875 -12.140625 C 8.289062 -12.140625 9.519531 -11.625 10.40625 -10.59375 C 11.300781 -9.5625 11.75 -8.144531 11.75 -6.34375 Z M 6.734375 -10.65625 C 5.742188 -10.65625 4.9375 -10.351562 4.3125 -9.75 C 3.695312 -9.15625 3.304688 -8.316406 3.140625 -7.234375 L 10.03125 -7.234375 C 9.9375 -8.347656 9.609375 -9.195312 9.046875 -9.78125 C 8.492188 -10.363281 7.722656 -10.65625 6.734375 -10.65625 Z M 6.734375 -10.65625 "/></g></g></g><g fill="#ffffff" fill-opacity="1"><g transform="translate(231.087182, 102.471138)"><g><path d="M 7.34375 -12.140625 C 7.738281 -12.140625 8.101562 -12.09375 8.4375 -12 L 8.390625 -10.25 C 8.023438 -10.375 7.609375 -10.4375 7.140625 -10.4375 C 5.992188 -10.4375 5.140625 -10.078125 4.578125 -9.359375 C 4.023438 -8.648438 3.75 -7.785156 3.75 -6.765625 L 3.75 0 L 1.84375 0 L 1.84375 -8.53125 C 1.84375 -9.757812 1.78125 -10.867188 1.65625 -11.859375 L 3.46875 -11.859375 L 3.65625 -9.65625 C 3.945312 -10.457031 4.421875 -11.070312 5.078125 -11.5 C 5.742188 -11.925781 6.5 -12.140625 7.34375 -12.140625 Z M 7.34375 -12.140625 "/></g></g></g></svg>